<svg xmlns="http://www.w3.org/2000/svg" viewBox="0 0 200 200" width="200" height="200">
  <!-- Bombilla principal -->
  <g id="bombilla">
    <!-- Cuerpo de la bombilla -->
    <ellipse cx="100" cy="80" rx="35" ry="45" fill="#FFE066" stroke="#E6C200" stroke-width="2"/>
    
    <!-- Filamento -->
    <g stroke="#CC9900" stroke-width="1.5" fill="none">
      <path d="M85 70 Q100 60 115 70"/>
      <path d="M85 80 Q100 70 115 80"/>
      <path d="M85 90 Q100 80 115 90"/>
    </g>
    
    <!-- Base roscada -->
    <rect x="85" y="120" width="30" height="25" fill="#C0C0C0" stroke="#999" stroke-width="1"/>
    
    <!-- Líneas de rosca -->
    <g stroke="#999" stroke-width="0.8">
      <line x1="85" y1="125" x2="115" y2="125"/>
      <line x1="85" y1="130" x2="115" y2="130"/>
      <line x1="85" y1="135" x2="115" y2="135"/>
      <line x1="85" y1="140" x2="115" y2="140"/>
    </g>
    
    <!-- Contacto inferior -->
    <circle cx="100" cy="152" r="8" fill="#999" stroke="#666" stroke-width="1"/>
    <circle cx="100" cy="152" r="3" fill="#666"/>
    
    <!-- Brillo en la bombilla -->
    <ellipse cx="90" cy="65" rx="8" ry="12" fill="#FFFF99" opacity="0.7"/>
    
    <!-- Rayos de luz -->
    <g stroke="#FFD700" stroke-width="2" stroke-linecap="round">
      <line x1="60" y1="50" x2="50" y2="40"/>
      <line x1="140" y1="50" x2="150" y2="40"/>
      <line x1="45" y1="80" x2="30" y2="80"/>
      <line x1="155" y1="80" x2="170" y2="80"/>
      <line x1="60" y1="110" x2="50" y2="120"/>
      <line x1="140" y1="110" x2="150" y2="120"/>
    </g>
  </g>
</svg>